<!DOCTYPE svg PUBLIC "-//W3C//DTD SVG 1.1//EN" "http://www.w3.org/Graphics/SVG/1.1/DTD/svg11.dtd">
<!-- Uploaded to: SVG Repo, www.svgrepo.com, Transformed by: SVG Repo Mixer Tools -->
<svg fill="#929090" height="800px" width="800px" version="1.1" id="Layer_1" xmlns="http://www.w3.org/2000/svg" xmlns:xlink="http://www.w3.org/1999/xlink" viewBox="0 0 512 512" xml:space="preserve">
<g id="SVGRepo_bgCarrier" stroke-width="0"/>
<g id="SVGRepo_tracerCarrier" stroke-linecap="round" stroke-linejoin="round"/>
<g id="SVGRepo_iconCarrier"> <g> <g> <path d="M488.79,47.263l-24.034-24.035C449.775,8.249,429.859,0,408.675,0c-21.186,0-41.102,8.249-56.081,23.229l-44.796,44.794 c-0.002,0.002-0.005,0.006-0.007,0.008c-0.001,0.001-0.001,0.001-0.002,0.002L33.471,342.983 c-0.028,0.028-0.053,0.062-0.081,0.091c-0.416,0.391-0.836,0.774-1.242,1.181c-4.456,4.456-9.539,13.437-16.504,48.67 C6.92,437.064,0.361,496.986,0.085,499.514c-0.37,3.394,0.82,6.772,3.234,9.185c2.125,2.124,4.996,3.3,7.967,3.3 c0.405,0,0.811-0.023,1.219-0.066c2.53-0.275,62.451-6.835,106.591-15.56c35.233-6.965,44.213-12.047,48.67-16.504 c0.432-0.432,0.839-0.879,1.255-1.321c0.034-0.033,0.07-0.061,0.104-0.094l274.861-274.227c0.003-0.003,0.008-0.007,0.011-0.01 l44.795-44.794C519.712,128.503,519.712,78.188,488.79,47.263z M48.219,360.055c0.354-0.35,0.717-0.685,1.082-1.018 c0.206-0.187,0.416-0.368,0.625-0.55c0.238-0.206,0.477-0.412,0.719-0.611c0.177-0.145,0.357-0.286,0.537-0.427 c0.296-0.233,0.593-0.464,0.895-0.685c0.115-0.085,0.232-0.167,0.348-0.25c0.386-0.276,0.776-0.549,1.172-0.807 c0.024-0.016,0.047-0.03,0.072-0.046c12.867-8.373,30.135-7.289,41.863,3.252c0.024,0.021,0.048,0.041,0.072,0.062 c0.434,0.392,0.86,0.797,1.278,1.215c2.648,2.648,4.805,5.645,6.436,8.872c3.15,6.232,4.322,13.321,3.304,20.404l-34.815,34.815 l-32.859-32.858C44.207,366.424,47.625,360.873,48.219,360.055z M24.122,487.897c1.947-16.141,5.489-43.734,9.824-69.605 l29.466,29.466c0.134,0.149,0.259,0.302,0.403,0.446c0.143,0.143,0.297,0.269,0.446,0.403l29.465,29.465 C67.862,482.409,40.264,485.95,24.122,487.897z M156.334,458.392c-0.001,0.002-0.002,0.003-0.003,0.006 c-0.273,0.418-0.56,0.828-0.852,1.236c-0.069,0.096-0.136,0.193-0.207,0.287c-0.234,0.32-0.48,0.635-0.727,0.949 c-0.13,0.163-0.258,0.328-0.39,0.49c-0.21,0.256-0.427,0.508-0.644,0.759c-0.171,0.197-0.343,0.396-0.518,0.59 c-0.335,0.368-0.674,0.735-1.026,1.092c-0.819,0.593-6.37,4.012-31.368,9.271L87.74,440.216l34.815-34.815 c10.75-1.545,21.512,1.977,29.275,9.74c0.097,0.097,0.186,0.197,0.281,0.295c0.315,0.323,0.631,0.648,0.932,0.98 c0.035,0.039,0.068,0.08,0.103,0.118C163.658,428.273,164.724,445.537,156.334,458.392z M184.005,431.776 c-1.264-9.185-4.791-18.114-10.542-25.929c-0.029-0.041-0.06-0.08-0.089-0.119c-0.486-0.656-0.987-1.304-1.504-1.944 c-0.125-0.156-0.25-0.311-0.378-0.464c-0.448-0.543-0.91-1.079-1.381-1.61c-0.154-0.173-0.304-0.349-0.461-0.522 c-0.611-0.672-1.236-1.334-1.885-1.983c-6.976-6.976-15.415-11.877-24.515-14.499l188.433-188.433c4.4-4.4,4.4-11.535,0-15.936 c-4.401-4.4-11.534-4.4-15.936,0L127.314,368.771c-0.181-0.628-0.362-1.256-0.565-1.877c-2.735-8.383-7.441-16.144-13.935-22.639 c-0.651-0.651-1.318-1.28-1.993-1.893c-0.161-0.146-0.327-0.287-0.489-0.432c-0.543-0.483-1.091-0.954-1.647-1.414 c-0.144-0.118-0.29-0.235-0.434-0.353c-0.655-0.53-1.317-1.042-1.989-1.539c-0.025-0.018-0.051-0.038-0.076-0.056 c-7.821-5.76-16.754-9.29-25.95-10.553L315.775,91.935l6.108,6.108l98.2,98.2L184.005,431.776z M472.856,143.491l-36.827,36.826 l-52.163-52.163l-52.164-52.163l36.827-36.827c10.722-10.724,24.981-16.629,40.146-16.629s29.422,5.905,40.146,16.629 l12.017,12.018c0,0,0,0,0.001,0l12.017,12.017C494.992,85.336,494.992,121.354,472.856,143.491z"/> </g> </g> <g> <g> <path d="M358.105,162.76c-0.146-0.721-0.359-1.431-0.641-2.107c-0.282-0.687-0.632-1.341-1.038-1.949 c-0.405-0.62-0.878-1.194-1.396-1.713c-0.518-0.518-1.094-0.992-1.714-1.397c-0.608-0.406-1.262-0.755-1.948-1.037 c-0.677-0.282-1.386-0.496-2.107-0.642c-1.454-0.293-2.952-0.293-4.406,0c-0.71,0.146-1.42,0.361-2.107,0.642 c-0.676,0.282-1.33,0.631-1.938,1.037c-0.62,0.406-1.195,0.879-1.714,1.397c-0.518,0.518-0.992,1.093-1.408,1.713 c-0.405,0.608-0.755,1.262-1.037,1.949c-0.282,0.676-0.495,1.386-0.641,2.107c-0.148,0.721-0.214,1.465-0.214,2.197 c0,0.732,0.068,1.476,0.214,2.208c0.145,0.721,0.359,1.42,0.641,2.107c0.282,0.676,0.632,1.33,1.037,1.938 c0.417,0.62,0.89,1.194,1.408,1.713c0.518,0.53,1.094,0.992,1.714,1.408c0.608,0.406,1.262,0.755,1.938,1.037 c0.687,0.282,1.397,0.496,2.107,0.642c0.732,0.146,1.476,0.214,2.208,0.214c0.732,0,1.476-0.068,2.197-0.214 c0.721-0.146,1.431-0.361,2.107-0.642c0.686-0.282,1.34-0.631,1.948-1.037c0.62-0.417,1.195-0.879,1.714-1.408 c0.518-0.518,0.992-1.093,1.396-1.713c0.406-0.608,0.756-1.262,1.038-1.938c0.282-0.687,0.495-1.386,0.641-2.107 c0.146-0.732,0.225-1.476,0.225-2.208C358.33,164.225,358.251,163.481,358.105,162.76z"/> </g> </g> </g>
</svg>